<mxfile host="app.diagrams.net" modified="2023-02-16T10:48:20.957Z" agent="5.0 (Windows NT 10.0; Win64; x64) AppleWebKit/537.36 (KHTML, like Gecko) Chrome/110.0.0.0 Safari/537.36" etag="dHxUNfLj9Fb5M47Ndw7H" version="20.8.20" type="github">
  <diagram id="C5RBs43oDa-KdzZeNtuy" name="Page-1">
    <mxGraphModel dx="1434" dy="796" grid="1" gridSize="10" guides="1" tooltips="1" connect="1" arrows="1" fold="1" page="1" pageScale="1" pageWidth="827" pageHeight="1169" math="0" shadow="0">
      <root>
        <mxCell id="WIyWlLk6GJQsqaUBKTNV-0" />
        <mxCell id="WIyWlLk6GJQsqaUBKTNV-1" parent="WIyWlLk6GJQsqaUBKTNV-0" />
        <mxCell id="1khITQmSOnszfaZnpKhK-0" value="Remigiusz&lt;br&gt;" style="shape=umlActor;verticalLabelPosition=bottom;verticalAlign=top;html=1;outlineConnect=0;" vertex="1" parent="WIyWlLk6GJQsqaUBKTNV-1">
          <mxGeometry x="410" y="420" width="220" height="70" as="geometry" />
        </mxCell>
        <mxCell id="1khITQmSOnszfaZnpKhK-13" value="Czarek&lt;br&gt;" style="shape=umlActor;verticalLabelPosition=bottom;verticalAlign=top;html=1;outlineConnect=0;" vertex="1" parent="WIyWlLk6GJQsqaUBKTNV-1">
          <mxGeometry x="374" y="60" width="66" height="100" as="geometry" />
        </mxCell>
        <mxCell id="1khITQmSOnszfaZnpKhK-19" value="TAK" style="edgeStyle=orthogonalEdgeStyle;rounded=0;orthogonalLoop=1;jettySize=auto;html=1;exitX=1;exitY=0.5;exitDx=0;exitDy=0;" edge="1" parent="WIyWlLk6GJQsqaUBKTNV-1" source="1khITQmSOnszfaZnpKhK-14" target="1khITQmSOnszfaZnpKhK-0">
          <mxGeometry relative="1" as="geometry">
            <mxPoint x="530" y="260" as="targetPoint" />
          </mxGeometry>
        </mxCell>
        <mxCell id="1khITQmSOnszfaZnpKhK-22" style="edgeStyle=orthogonalEdgeStyle;rounded=0;orthogonalLoop=1;jettySize=auto;html=1;exitX=0;exitY=0.5;exitDx=0;exitDy=0;" edge="1" parent="WIyWlLk6GJQsqaUBKTNV-1" source="1khITQmSOnszfaZnpKhK-14" target="1khITQmSOnszfaZnpKhK-21">
          <mxGeometry relative="1" as="geometry" />
        </mxCell>
        <mxCell id="1khITQmSOnszfaZnpKhK-14" value="Gramy w coda?&lt;br&gt;" style="rhombus;whiteSpace=wrap;html=1;" vertex="1" parent="WIyWlLk6GJQsqaUBKTNV-1">
          <mxGeometry x="367" y="220" width="80" height="80" as="geometry" />
        </mxCell>
        <mxCell id="1khITQmSOnszfaZnpKhK-15" value="" style="endArrow=classic;html=1;rounded=0;" edge="1" parent="WIyWlLk6GJQsqaUBKTNV-1" source="1khITQmSOnszfaZnpKhK-13" target="1khITQmSOnszfaZnpKhK-14">
          <mxGeometry relative="1" as="geometry">
            <mxPoint x="360" y="390" as="sourcePoint" />
            <mxPoint x="460" y="390" as="targetPoint" />
          </mxGeometry>
        </mxCell>
        <mxCell id="1khITQmSOnszfaZnpKhK-21" value="Dobry żart&lt;br&gt;No pewnie że tak" style="whiteSpace=wrap;html=1;" vertex="1" parent="WIyWlLk6GJQsqaUBKTNV-1">
          <mxGeometry x="170" y="230" width="120" height="60" as="geometry" />
        </mxCell>
      </root>
    </mxGraphModel>
  </diagram>
</mxfile>
